<svg width="110" height="46" viewBox="0 0 110 46" fill="none" xmlns="http://www.w3.org/2000/svg">
<g clip-path="url(#clip0_0_284)">
<path d="M41.1572 41H39.2236L37.002 37.8555L36.2842 38.5928V41H34.8047V33.8027H36.2842V36.7666L39.0625 33.8027H41.0059L38.0566 36.7666L41.1572 41ZM47.5166 37.8555H44.0205V39.7061H48.0049V41H42.5508V33.8027H47.8291V35.0771H44.0205V36.6055H47.5166V37.8555ZM52.1182 36.6055L53.3584 36.9033C53.902 37.0335 54.3122 37.2077 54.5889 37.4258C55.0186 37.7643 55.2334 38.2542 55.2334 38.8955C55.2334 39.5531 54.9811 40.0999 54.4766 40.5361C53.9753 40.9691 53.2738 41.1855 52.3721 41.1855L52.0693 41.6396C52.1768 41.6169 52.2533 41.6006 52.2988 41.5908C52.3444 41.5843 52.3932 41.5811 52.4453 41.5811C52.709 41.5811 52.9189 41.6445 53.0752 41.7715C53.2314 41.9017 53.3096 42.0872 53.3096 42.3281C53.3096 42.6276 53.1875 42.8636 52.9434 43.0361C52.6992 43.2119 52.3851 43.2998 52.001 43.2998C51.835 43.2998 51.6348 43.2656 51.4004 43.1973C51.293 43.1647 51.1416 43.1126 50.9463 43.041L51.1318 42.6211C51.3174 42.6764 51.4443 42.7122 51.5127 42.7285C51.6689 42.7676 51.7959 42.7871 51.8936 42.7871C52.0889 42.7871 52.2288 42.7448 52.3135 42.6602C52.3981 42.5788 52.4404 42.4925 52.4404 42.4014C52.4404 42.2646 52.3932 42.1686 52.2988 42.1133C52.2044 42.0579 52.1035 42.0303 51.9961 42.0303C51.9342 42.0303 51.8708 42.0368 51.8057 42.0498C51.7406 42.0661 51.6673 42.0872 51.5859 42.1133L51.376 41.918L51.8594 41.1855C51.2474 41.1855 50.6729 40.9723 50.1357 40.5459C49.5986 40.1162 49.3301 39.527 49.3301 38.7783H50.7656C50.8112 39.1071 50.9007 39.3529 51.0342 39.5156C51.2783 39.8118 51.6966 39.96 52.2891 39.96C52.6439 39.96 52.932 39.9209 53.1533 39.8428C53.5732 39.693 53.7832 39.4147 53.7832 39.0078C53.7832 38.7702 53.679 38.5879 53.4707 38.4609C53.2624 38.3307 52.9352 38.2168 52.4893 38.1191L51.7275 37.9482C50.9788 37.779 50.4613 37.5951 50.1748 37.3965C49.6898 37.0645 49.4473 36.5452 49.4473 35.8389C49.4473 35.1943 49.6816 34.6589 50.1504 34.2324C50.6191 33.806 51.3076 33.5928 52.2158 33.5928C52.9743 33.5928 53.6204 33.7946 54.1543 34.1982C54.6914 34.5986 54.973 35.1813 54.999 35.9463H53.5537C53.5277 35.5133 53.3389 35.2057 52.9873 35.0234C52.7529 34.903 52.4616 34.8428 52.1133 34.8428C51.7259 34.8428 51.4167 34.9209 51.1855 35.0771C50.9544 35.2334 50.8389 35.4515 50.8389 35.7314C50.8389 35.9886 50.9528 36.1807 51.1807 36.3076C51.3271 36.3923 51.6396 36.4915 52.1182 36.6055ZM61.9492 35.0771H58.3408V36.7324H61.5V37.9824H58.3408V41H56.8467V33.8125H61.9492V35.0771ZM68.4697 37.8555H64.9736V39.7061H68.958V41H63.5039V33.8027H68.7822V35.0771H64.9736V36.6055H68.4697V37.8555ZM75.8594 33.8027V35.0771H73.7061V41H72.1924V35.0771H70.0293V33.8027H75.8594Z" fill="#1D1E1C"/>
<path fill-rule="evenodd" clip-rule="evenodd" d="M42.1354 13C42.1354 5.90446 47.9045 0.135437 55 0.135437C62.0956 0.135437 67.8646 5.90446 67.8646 13C67.8646 20.0956 62.0956 25.8646 55 25.8646C47.9045 25.8646 42.1354 20.0956 42.1354 13ZM58.5209 15.2745L61.6078 8.17892L61.608 8.17883C62.0957 7.04152 60.9584 5.90424 59.8211 6.39196L52.7256 9.47892C52.1839 9.72332 51.7226 10.156 51.4793 10.7252L48.4186 17.8473C47.9045 18.9581 49.0682 20.0954 50.179 19.6077L57.2746 16.5207C57.8163 16.2763 58.2775 15.8437 58.5209 15.2745ZM55 14.7604C55.9723 14.7604 56.7604 13.9723 56.7604 13C56.7604 12.0278 55.9723 11.2396 55 11.2396C54.0278 11.2396 53.2396 12.0278 53.2396 13C53.2396 13.9723 54.0278 14.7604 55 14.7604Z" fill="#1D1E1C"/>
</g>
<defs>
<clipPath id="clip0_0_284">
<rect width="110" height="46" fill="white"/>
</clipPath>
</defs>
</svg>
