<svg width="110" height="45" viewBox="0 0 110 45" fill="none" xmlns="http://www.w3.org/2000/svg">
<g opacity="0.3" clip-path="url(#clip0_0_293)">
<path d="M19.5801 40H16.4795V32.8027H19.5801C20.026 32.8092 20.3971 32.8613 20.6934 32.959C21.1979 33.125 21.6064 33.4294 21.9189 33.8721C22.1696 34.2301 22.3405 34.6175 22.4316 35.0342C22.5228 35.4508 22.5684 35.848 22.5684 36.2256C22.5684 37.1826 22.3763 37.9932 21.9922 38.6572C21.4714 39.5524 20.6673 40 19.5801 40ZM20.6982 34.6387C20.4671 34.248 20.0098 34.0527 19.3262 34.0527H17.9395V38.75H19.3262C20.0358 38.75 20.5306 38.4001 20.8105 37.7002C20.9635 37.3161 21.04 36.8587 21.04 36.3281C21.04 35.5957 20.9261 35.0326 20.6982 34.6387ZM28.4199 38.5205H25.7686L25.2705 40H23.6982L26.2666 32.8027H27.9658L30.5146 40H28.8838L28.4199 38.5205ZM28 37.2803L27.1016 34.4482L26.1738 37.2803H28ZM36.2246 40V36.7871H33.4121V40H31.9229V32.8027H33.4121V35.5469H36.2246V32.8027H37.7188V40H36.2246ZM43.873 38.5205H41.2217L40.7236 40H39.1514L41.7197 32.8027H43.4189L45.9678 40H44.3369L43.873 38.5205ZM43.4531 37.2803L42.5547 34.4482L41.627 37.2803H43.4531ZM55.376 39.4629C54.8389 39.9544 54.152 40.2002 53.3154 40.2002C52.2803 40.2002 51.4665 39.8682 50.874 39.2041C50.2816 38.5368 49.9854 37.6221 49.9854 36.46C49.9854 35.2035 50.3223 34.235 50.9961 33.5547C51.582 32.9622 52.3275 32.666 53.2324 32.666C54.4434 32.666 55.3288 33.0632 55.8887 33.8574C56.1979 34.3034 56.3639 34.751 56.3867 35.2002H54.8828C54.7852 34.8551 54.6598 34.5947 54.5068 34.4189C54.2334 34.1064 53.8281 33.9502 53.291 33.9502C52.7441 33.9502 52.3128 34.1715 51.9971 34.6143C51.6813 35.0537 51.5234 35.6771 51.5234 36.4844C51.5234 37.2917 51.6895 37.8971 52.0215 38.3008C52.3568 38.7012 52.7816 38.9014 53.2959 38.9014C53.8232 38.9014 54.2253 38.7288 54.502 38.3838C54.6549 38.1982 54.7819 37.9199 54.8828 37.5488H56.3721C56.2419 38.3333 55.9098 38.9714 55.376 39.4629ZM62.2822 37.2266V32.8027H63.8105V37.2266C63.8105 37.9915 63.6917 38.5872 63.4541 39.0137C63.0114 39.7949 62.1667 40.1855 60.9199 40.1855C59.6732 40.1855 58.8268 39.7949 58.3809 39.0137C58.1432 38.5872 58.0244 37.9915 58.0244 37.2266V32.8027H59.5527V37.2266C59.5527 37.7214 59.6113 38.0827 59.7285 38.3105C59.9108 38.7142 60.3079 38.916 60.9199 38.916C61.5286 38.916 61.9242 38.7142 62.1064 38.3105C62.2236 38.0827 62.2822 37.7214 62.2822 37.2266ZM61.2568 30.9766H62.5312V32.1338H61.2568V30.9766ZM59.3037 30.9766H60.5781V32.1338H59.3037V30.9766ZM70.8438 40H65.2432V38.7305L68.959 34.0771H65.3359V32.8027H70.834V34.0088L67.0693 38.7305H70.8438V40ZM75.4648 40H72.3643V32.8027H75.4648C75.9108 32.8092 76.2819 32.8613 76.5781 32.959C77.0827 33.125 77.4912 33.4294 77.8037 33.8721C78.0544 34.2301 78.2253 34.6175 78.3164 35.0342C78.4076 35.4508 78.4531 35.848 78.4531 36.2256C78.4531 37.1826 78.2611 37.9932 77.877 38.6572C77.3561 39.5524 76.5521 40 75.4648 40ZM76.583 34.6387C76.3519 34.248 75.8945 34.0527 75.2109 34.0527H73.8242V38.75H75.2109C75.9206 38.75 76.4154 38.4001 76.6953 37.7002C76.8483 37.3161 76.9248 36.8587 76.9248 36.3281C76.9248 35.5957 76.8109 35.0326 76.583 34.6387ZM84.3047 38.5205H81.6533L81.1553 40H79.583L82.1514 32.8027H83.8506L86.3994 40H84.7686L84.3047 38.5205ZM83.8848 37.2803L82.9863 34.4482L82.0586 37.2803H83.8848ZM93.6377 40H92.1338L89.1943 34.8877V40H87.793V32.8027H89.3701L92.2363 37.8271V32.8027H93.6377V40Z" fill="#1D1E1C"/>
<path d="M43.4907 9.8105C42.5229 9.00086 43.0829 7.45536 44.3312 7.38255L50.4932 6.96576C50.8493 6.94085 51.1806 6.72048 51.3337 6.37747L53.6762 0.858505C53.9308 0.294148 54.466 0 55.0001 0C55.5353 0 56.0694 0.294148 56.324 0.858505L58.6665 6.37747C58.7938 6.69654 59.1251 6.9169 59.507 6.96576L65.669 7.38255C66.9163 7.45633 67.4773 9.00184 66.5095 9.8105L61.6714 13.6125C61.3909 13.8328 61.2636 14.2008 61.3402 14.5687L62.7914 20.3079C62.9953 21.2402 62.2821 22 61.4416 22C61.187 22 60.9323 21.9262 60.7036 21.7796L55.4328 18.6647C55.1274 18.4683 54.7196 18.4683 54.4143 18.6647L49.1942 21.7796C48.9654 21.9272 48.6849 22 48.4303 22C47.5897 22 46.8258 21.2392 47.0805 20.3079L48.5317 14.5687C48.6083 14.2257 48.5058 13.8577 48.2005 13.6364L43.4907 9.8105Z" fill="#1D1E1C"/>
</g>
<defs>
<clipPath id="clip0_0_293">
<rect width="110" height="45" fill="white"/>
</clipPath>
</defs>
</svg>
